<?xml version="1.0" standalone="no"?>
<!DOCTYPE svg PUBLIC "-//W3C//DTD SVG 20010904//EN"
 "http://www.w3.org/TR/2001/REC-SVG-20010904/DTD/svg10.dtd">
<svg version="1.0" xmlns="http://www.w3.org/2000/svg"
 width="700.000000pt" height="700.000000pt" viewBox="0 0 700.000000 700.000000"
 preserveAspectRatio="xMidYMid meet">
<metadata>
Created by potrace 1.11, written by Peter Selinger 2001-2013
</metadata>
<g transform="translate(0.000000,700.000000) scale(0.100000,-0.100000)"
fill="#000000" stroke="none">
<path d="M5910 6985 c-154 -34 -288 -95 -396 -181 -50 -40 -74 -53 -89 -49
-209 62 -419 39 -596 -66 -116 -68 -229 -197 -284 -325 -46 -109 -55 -174 -49
-339 16 -377 7 -648 -26 -835 -5 -25 -8 -45 -7 -45 4 -2 122 -80 127 -85 3 -3
32 -25 65 -50 94 -71 250 -226 337 -335 97 -124 89 -112 118 -160 26 -43 40
-56 51 -49 10 6 140 22 249 32 83 7 305 7 640 0 149 -3 172 -1 234 20 250 82
419 256 485 502 25 96 24 274 -3 367 l-18 61 49 61 c86 107 168 285 188 411
13 80 13 263 -1 330 -73 357 -327 630 -672 721 -100 27 -309 34 -402 14z"/>
<path d="M3505 5069 c-169 -33 -372 -111 -535 -208 -41 -24 -84 -49 -95 -55
-11 -6 -32 -20 -48 -30 l-27 -18 354 -355 c210 -210 361 -369 372 -391 52
-110 -9 -243 -132 -285 -52 -18 -136 -2 -184 36 -19 14 -182 174 -362 354
-179 181 -340 341 -357 357 l-30 29 -33 -28 c-97 -82 -262 -240 -388 -374 -70
-75 -236 -287 -348 -445 l-63 -88 496 -497 c272 -273 503 -509 511 -526 20
-37 26 -117 12 -159 -18 -52 -55 -93 -110 -120 -57 -27 -114 -29 -173 -6 -17
6 -228 209 -495 476 -256 255 -468 464 -472 464 -13 0 -244 -407 -363 -638
l-58 -113 240 -242 c215 -217 241 -247 251 -287 28 -118 -34 -227 -149 -260
-39 -12 -100 -4 -144 17 -16 8 -112 96 -212 196 -100 100 -184 179 -186 177
-6 -7 -94 -198 -199 -430 -14 -30 -35 -75 -46 -100 -148 -328 -376 -869 -505
-1200 -48 -123 -22 -223 75 -287 34 -23 52 -28 102 -28 54 0 90 12 306 99 198
79 664 274 755 316 11 5 139 63 285 128 318 144 433 198 697 329 l201 100
-229 229 c-257 257 -274 280 -267 375 10 145 167 236 293 171 23 -11 157 -137
310 -291 149 -149 275 -271 282 -271 27 0 436 245 673 404 74 49 194 134 267
188 l131 98 -367 368 c-245 244 -376 382 -391 411 -31 63 -25 145 16 204 39
56 117 96 176 91 91 -9 96 -13 495 -411 l386 -386 86 89 c73 75 152 164 255
284 46 55 170 225 231 319 105 162 220 407 250 531 45 187 49 222 48 375 -2
275 -100 524 -301 770 -250 304 -548 495 -860 550 -111 20 -307 17 -427 -6z"/>
</g>
</svg>
